
<svg width="22" height="22" viewBox="0 0 22 22" fill="none" xmlns="http://www.w3.org/2000/svg">
    <path d="M4.98333,0.546387C2.40617,0.546387 0.31667,2.63589 0.31667,5.21305V16.8797C0.31667,19.4569 2.40617,21.5464 4.98333,21.5464H21.3167C23.8938,21.5464 25.9833,19.4569 25.9833,16.8797V5.21305C25.9833,2.63589 23.8938,0.546387 21.3167,0.546387H4.98333ZM7.45,17.6306V8.35672H10.45V17.6306H7.45ZM8.94999,7.21305C8.01666,7.21305 7.26666,6.45672 7.26666,5.53039C7.26666,4.59606 8.01666,3.83972 8.94999,3.83972C9.88333,3.83972 10.6333,4.59606 10.6333,5.53039C10.6333,6.45672 9.88333,7.21305 8.94999,7.21305ZM19.0833,17.6306H16.0833V12.9806C16.0833,11.9306 16.0667,10.5806 14.7,10.5806C13.3167,10.5806 13.0833,11.7631 13.0833,12.9131V17.6306H10.0833V8.35672H13.0833V9.54672H13.1167C13.4667,8.71305 14.35,7.93039 15.6833,7.93039C18.4667,7.93039 19.0833,9.98039 19.0833,12.4304V17.6306Z" fill="#0077B5"/>
</svg>
